<svg preserveAspectRatio="none" overflow="visible" style="display: block;" width="15.75" height="18" viewBox="0 0 15.75 18" fill="none" xmlns="http://www.w3.org/2000/svg">
<g id="Frame">
<g clip-path="url(#clip0_0_18)">
<path id="Vector" d="M7.875 0C7.25273 0 6.75 0.502734 6.75 1.125V1.7543C4.20117 2.15859 2.25 4.36641 2.25 7.03125V8.20547C2.25 9.80156 1.70508 11.352 0.710156 12.5965L0.186328 13.2539C-0.0175781 13.507 -0.05625 13.8551 0.084375 14.1469C0.225 14.4387 0.520312 14.625 0.84375 14.625H14.9062C15.2297 14.625 15.525 14.4387 15.6656 14.1469C15.8062 13.8551 15.7676 13.507 15.5637 13.2539L15.0398 12.6C14.0449 11.352 13.5 9.80156 13.5 8.20547V7.03125C13.5 4.36641 11.5488 2.15859 9 1.7543V1.125C9 0.502734 8.49727 0 7.875 0ZM7.875 3.375H8.15625C10.1742 3.375 11.8125 5.01328 11.8125 7.03125V8.20547C11.8125 9.88945 12.3012 11.5312 13.2082 12.9375H2.5418C3.44883 11.5312 3.9375 9.88945 3.9375 8.20547V7.03125C3.9375 5.01328 5.57578 3.375 7.59375 3.375H7.875ZM10.125 15.75H7.875H5.625C5.625 16.3477 5.86055 16.9207 6.28242 17.3426C6.7043 17.7645 7.27734 18 7.875 18C8.47266 18 9.0457 17.7645 9.46758 17.3426C9.88945 16.9207 10.125 16.3477 10.125 15.75Z" fill="#F1F1F1"/>
</g>
</g>
<defs>
<clipPath id="clip0_0_18">
<path d="M0 0H15.75V18H0V0Z" fill="white"/>
</clipPath>
</defs>
</svg>
